<svg width="16" height="16" viewBox="0 0 16 16" fill="none" xmlns="http://www.w3.org/2000/svg">
<path d="M4.2168 11.6646C6.61572 14.0635 9.5293 15.9146 11.9116 15.9146C12.9824 15.9146 13.9204 15.541 14.6758 14.7109C15.1157 14.2212 15.3896 13.6484 15.3896 13.084C15.3896 12.6689 15.2319 12.2705 14.8418 11.9883L12.2935 10.1787C11.9033 9.91309 11.5796 9.78027 11.2808 9.78027C10.9072 9.78027 10.5669 9.99609 10.1851 10.3696L9.5957 10.9507C9.50439 11.042 9.38818 11.0835 9.28027 11.0835C9.15576 11.0835 9.03125 11.0337 8.94824 10.9922C8.43359 10.7183 7.55371 9.96289 6.73193 9.14941C5.91846 8.33594 5.16309 7.45605 4.89746 6.94141C4.85596 6.8501 4.80615 6.73389 4.80615 6.60938C4.80615 6.50146 4.83936 6.39355 4.93066 6.30225L5.52002 5.69629C5.88525 5.31445 6.10938 4.98242 6.10938 4.60059C6.10938 4.30176 5.96826 3.97803 5.69434 3.58789L3.90967 1.07275C3.61914 0.674316 3.2124 0.5 2.76416 0.5C2.21631 0.5 1.65186 0.749023 1.16211 1.22217C0.356934 1.99414 0 2.94873 0 4.00293C0 6.38525 1.81787 9.27393 4.2168 11.6646Z" fill="white"/>
</svg>
