<svg width="20" height="8" viewBox="0 0 20 8" fill="none" xmlns="http://www.w3.org/2000/svg">
<path d="M9.75774 0.5C6.1635 0.5 2.78508 1.25537 1.10002 2.94043C0.336351 3.7041 -0.0454851 4.62549 0.00431963 5.73779C0.0375228 6.41016 0.245042 7.00781 0.635179 7.39795C0.925706 7.69678 1.33244 7.86279 1.80559 7.78809L4.88518 7.26514C5.35002 7.19043 5.67375 7.04932 5.88127 6.8335C6.1552 6.56787 6.23821 6.16943 6.23821 5.64648V4.80811C6.23821 4.67529 6.29631 4.57568 6.37932 4.49268C6.46233 4.39307 6.58684 4.35156 6.67815 4.32666C7.2426 4.19385 8.38811 4.06934 9.75774 4.06934C11.1274 4.06934 12.2646 4.16895 12.8373 4.33496C12.9203 4.35986 13.0365 4.40967 13.1279 4.49268C13.2026 4.57568 13.2524 4.66699 13.2607 4.7998L13.269 5.64648C13.2773 6.16943 13.3603 6.56787 13.6259 6.8335C13.8417 7.04932 14.1655 7.19043 14.6303 7.26514L17.6684 7.77979C18.1581 7.86279 18.5732 7.68848 18.8969 7.37305C19.287 6.99121 19.5029 6.40186 19.5195 5.72949C19.5444 4.60889 19.1127 3.6875 18.3656 2.94043C16.6806 1.25537 13.352 0.5 9.75774 0.5Z" fill="white"/>
</svg>
